<svg xmlns="http://www.w3.org/2000/svg" viewBox="34 26 258 126" width="516" height="252"><defs><pattern id="hphandgood20" width="3.2" height="3.2" patternUnits="userSpaceOnUse" patternTransform="rotate(40)"><rect width="3.2" height="3.2" fill="#fffdf7"/><line x1="0" y1="0" x2="0" y2="3.2" stroke="#26296b" stroke-width="1.15"/></pattern></defs><rect x="150" y="118" width="134" height="16" fill="#fffdf7" stroke="#26296b" stroke-width="2"/><line x1="206.0" y1="118.0" x2="206.0" y2="134.0" stroke="#26296b" stroke-width="1.2" stroke-linecap="round"/><path d="M120,134 L290,134 L290,148 L120,148 Z" fill="url(#hphandgood20)" stroke="#26296b" stroke-width="2"/><path d="M36.6 118.1l3.9.3 4 0 5-.2 4.8.4 4.1.2 4.8-.6 4.4-.3 3.9.6 4.5.4 4.5-.2 4.4 0 5-.1 5-.3 4.6.2 5.2.2 5.1-.3 4-.3 4 .2 4.6 0 4.6-.4 4.9 0 4.8.2 4.6-.2 5-.2 5.1 0" stroke="#e4572e" stroke-width="1.4" stroke-dasharray="4 4" fill="none"/><text stroke="#fffdf7" stroke-width="2.4" stroke-linejoin="round" paint-order="stroke" x="38" y="113" font-size="8.5" font-weight="800" fill="#e4572e" font-family="Inter,sans-serif">key level</text><path d="M159.7 101.4l.9 4.2 2.3 3.7 3.1 2.6 3.9 1.3 4.2.2 4.1-1.3 3.5-3.1 2.1-3.8 .6-3.6-1-3.5-2.2-3.4-3-2.4-3.8-1.1-4.2-.6-4.2.7-3.4 2.4-2.2 3.6z" fill="none" stroke="#e4572e" stroke-width="2.2"/><path d="M164.9 92.5l2 4 1 4-.1 3.6-1 3.4-1.8 3.1M179.1 93.5l-1.5 3.4-.9 3.1-.1 3.4 .8 3.7 1.9 3.5" fill="none" stroke="#e4572e" stroke-width="1.2"/><path d="M22.7 91l4.3-.2 5.3-.4 5.2-.3 4.3-.2 4.4 0 4.8 0 4.1-.3 4-.1 4.2.2 4.1-.1 4.5-.7 5.1-.7 4.7 0 4.5 0 4.7.1 4.2.1 3.8-.3 4.2-.4 4.6.1 4.5.2 4.5-.7 4.5-.7 4.6.3 4.9.4 4.5-.1 4 0 3.9.2" fill="none" stroke="#26296b" stroke-width="21.0" stroke-linecap="round" stroke-linejoin="round"/><path d="M22.7 91l4.3-.2 5.3-.4 5.2-.3 4.3-.2 4.4 0 4.8 0 4.1-.3 4-.1 4.2.2 4.1-.1 4.5-.7 5.1-.7 4.7 0 4.5 0 4.7.1 4.2.1 3.8-.3 4.2-.4 4.6.1 4.5.2 4.5-.7 4.5-.7 4.6.3 4.9.4 4.5-.1 4 0 3.9.2" fill="none" stroke="url(#hphandgood20)" stroke-width="17.2" stroke-linecap="round" stroke-linejoin="round"/><path d="M22.7 91l4.3-.2 5.3-.4 5.2-.3 4.3-.2 4.4 0 4.8 0 4.1-.3 4-.1 4.2.2 4.1-.1 4.5-.7 5.1-.7 4.7 0 4.5 0 4.7.1 4.2.1 3.8-.3 4.2-.4 4.6.1 4.5.2 4.5-.7 4.5-.7 4.6.3 4.9.4 4.5-.1 4 0 3.9.2" fill="none" stroke="#fffdf7" stroke-width="17" stroke-linecap="round" stroke-linejoin="round"/><path d="M18.9 90.9l4.1-.1 4.3-.2 5.2-.3 5.2-.3 4.1-.2 4.3 0 4.7 0 4.1-.3 3.8-.1 4.2.2 4 0 4.4-.6 4.9-.7 4.7-.2 4.4.1 4.6 0 4.3.1 3.7-.1" fill="none" stroke="#26296b" stroke-width="21.4" stroke-linecap="round" stroke-linejoin="round"/><path d="M18.9 90.9l4.1-.1 4.3-.2 5.2-.3 5.2-.3 4.1-.2 4.3 0 4.7 0 4.1-.3 3.8-.1 4.2.2 4 0 4.4-.6 4.9-.7 4.7-.2 4.4.1 4.6 0 4.3.1 3.7-.1" fill="none" stroke="url(#hphandgood20)" stroke-width="17.6" stroke-linecap="round" stroke-linejoin="round"/><path d="M143.1 87.4l4.6-.5 4.8-.7 4.6 0 4.4-.2 4.5-.4 4.7 0 4.5.3 4.6-.5 4.8-.4 4.7.2" fill="none" stroke="#26296b" stroke-width="18.0" stroke-linecap="round" stroke-linejoin="round"/><path d="M143.1 87.4l4.6-.5 4.8-.7 4.6 0 4.4-.2 4.5-.4 4.7 0 4.5.3 4.6-.5 4.8-.4 4.7.2" fill="none" stroke="url(#hphandgood20)" stroke-width="14.2" stroke-linecap="round" stroke-linejoin="round"/><path d="M143.1 87.4l4.6-.5 4.8-.7 4.6 0 4.4-.2 4.5-.4 4.7 0 4.5.3 4.6-.5 4.8-.4 4.7.2" fill="none" stroke="#fffdf7" stroke-width="14" stroke-linecap="round" stroke-linejoin="round"/><path d="M189.3 85.2l3.6 1.4 3.7.7 3.7 1.4 3.5 1.8 3.6 1.4 3.7 1.7 2.2 3.7 2.1 3.2 2 2.8 1.9 3 .6 4.2 .8 4 .8 3.8" fill="none" stroke="#26296b" stroke-width="11.2" stroke-linecap="round" stroke-linejoin="round"/><path d="M189.3 85.2l3.6 1.4 3.7.7 3.7 1.4 3.5 1.8 3.6 1.4 3.7 1.7 2.2 3.7 2.1 3.2 2 2.8 1.9 3 .6 4.2 .8 4 .8 3.8" fill="none" stroke="url(#hphandgood20)" stroke-width="7.4" stroke-linecap="round" stroke-linejoin="round"/><path d="M189.3 85.2l3.6 1.4 3.7.7 3.7 1.4 3.5 1.8 3.6 1.4 3.7 1.7 2.2 3.7 2.1 3.2 2 2.8 1.9 3 .6 4.2 .8 4 .8 3.8" fill="none" stroke="#fffdf7" stroke-width="7.6" stroke-linecap="round" stroke-linejoin="round"/><g transform="translate(-0.5 0.6)"><line x1="222.8" y1="108.7" x2="223.7" y2="113.6" stroke="#26296b" stroke-width="1.1" stroke-linecap="round"/></g><g transform="translate(-0.2 -0.3)"><circle cx="211.3" cy="93.9" r="2.9" fill="#fffdf7" stroke="#26296b" stroke-width="1.5"/></g><g transform="translate(-0.6 0.1)"><circle cx="219.9" cy="106.2" r="2.9" fill="#fffdf7" stroke="#26296b" stroke-width="1.5"/></g><g transform="translate(-0.4 0.9)"><circle cx="143.5" cy="86.5" r="3.6" fill="#fffdf7" stroke="#26296b" stroke-width="1.5"/></g><g transform="translate(-0.1 1.1)"><circle cx="189.4" cy="84.1" r="3.6" fill="#fffdf7" stroke="#26296b" stroke-width="1.5"/></g><g transform="translate(-0.5 0.3)"><circle cx="222.0" cy="118.0" r="3.6" fill="#fffdf7" stroke="#26296b" stroke-width="1.5"/></g><text stroke="#fffdf7" stroke-width="2.4" stroke-linejoin="round" paint-order="stroke" x="143.5" y="72.5" text-anchor="middle" font-size="9.5" font-weight="900" fill="#26296b" font-family="Inter,sans-serif">wrist</text><text stroke="#fffdf7" stroke-width="2.4" stroke-linejoin="round" paint-order="stroke" x="193.4" y="71.1" text-anchor="middle" font-size="9.5" font-weight="900" fill="#26296b" font-family="Inter,sans-serif">knuckle</text><text stroke="#fffdf7" stroke-width="2.4" stroke-linejoin="round" paint-order="stroke" x="232.0" y="111.0" text-anchor="start" font-size="9.5" font-weight="900" fill="#26296b" font-family="Inter,sans-serif">tip</text></svg>