<svg viewBox="40 44 250 104" style="width: 100%; max-width: 390px; display: block; margin: 0px auto;"><rect x="150" y="118" width="130" height="16" fill="#fff" stroke="#7f81a8"></rect><rect x="120" y="134" width="170" height="14" fill="#26296b"></rect><line x1="40" x2="150" y1="118" y2="118" stroke="#e4572e" stroke-dasharray="4 4" stroke-opacity="0.7"></line><text x="44" y="114" font-size="8" font-weight="800" fill="#e4572e">key level</text><polyline points="17.195602372544855,74.33445584236559 137.0311465430937,80.61477059151885" fill="none" stroke="#d9a27a" stroke-width="20" stroke-linecap="round" stroke-linejoin="round"></polyline><polyline points="17.195602372544855,74.33445584236559 137.0311465430937,80.61477059151885" fill="none" stroke="#f8e6dc" stroke-width="17" stroke-linecap="round" stroke-linejoin="round"></polyline><polyline points="137.0311465430937,80.61477059151885 180.77974629267078,94.82955233276643" fill="none" stroke="#d9a27a" stroke-width="17" stroke-linecap="round" stroke-linejoin="round"></polyline><polyline points="137.0311465430937,80.61477059151885 180.77974629267078,94.82955233276643" fill="none" stroke="#f8e6dc" stroke-width="14" stroke-linecap="round" stroke-linejoin="round"></polyline><polyline points="180.77974629267078,94.82955233276643 204.54617994246848,98.169706755808 216.3663412465693,107.40462888569287 222,118" fill="none" stroke="#d9a27a" stroke-width="10" stroke-linecap="round" stroke-linejoin="round"></polyline><polyline points="180.77974629267078,94.82955233276643 204.54617994246848,98.169706755808 216.3663412465693,107.40462888569287 222,118" fill="none" stroke="#f8e6dc" stroke-width="7.5" stroke-linecap="round" stroke-linejoin="round"></polyline><circle cx="180.77974629267078" cy="94.82955233276643" r="4" fill="#fff" stroke="#c8361b" stroke-width="2.2"></circle><circle cx="137.0311465430937" cy="80.61477059151885" r="4" fill="#fff" stroke="#c8361b" stroke-width="2.2"></circle><circle cx="222" cy="118" r="4" fill="#fff" stroke="#2e8a6e" stroke-width="2.2"></circle><text x="180.77974629267078" y="82.82955233276643" font-size="8.5" font-weight="900" text-anchor="middle" fill="#c8361b">knuckle</text><text x="137.0311465430937" y="66.61477059151885" font-size="8.5" font-weight="900" text-anchor="middle" fill="#c8361b">wrist</text><text x="234" y="112" font-size="8.5" font-weight="900" fill="#2e8a6e">tip</text></svg>