<svg xmlns="http://www.w3.org/2000/svg" viewBox="0 0 220 172" width="440" height="344"><defs><pattern id="hpsit20" width="3.2" height="3.2" patternUnits="userSpaceOnUse" patternTransform="rotate(40)"><rect width="3.2" height="3.2" fill="#fffdf7"/><line x1="0" y1="0" x2="0" y2="3.2" stroke="#26296b" stroke-width="1.15"/></pattern></defs><line x1="6.0" y1="162.0" x2="214.0" y2="162.0" stroke="rgba(38,41,107,0.4)" stroke-width="1.6" stroke-linecap="round"/><text stroke="#fffdf7" stroke-width="2.4" stroke-linejoin="round" paint-order="stroke" x="8" y="91" font-size="8.5" font-weight="800" fill="#e4572e" font-family="Inter,sans-serif">key level</text><line x1="8" y1="96" x2="122" y2="96" stroke="#e4572e" stroke-width="1.3" stroke-dasharray="4 4"/><rect x="46" y="114" width="54" height="7" rx="2" fill="#fffdf7" stroke="#26296b" stroke-width="2.4"/><line x1="53.0" y1="121.0" x2="53.0" y2="162.0" stroke="#26296b" stroke-width="2.4" stroke-linecap="round"/><line x1="93.0" y1="121.0" x2="93.0" y2="162.0" stroke="#26296b" stroke-width="2.4" stroke-linecap="round"/><rect x="150" y="58" width="56" height="104" rx="2.5" fill="#fffdf7" stroke="#26296b" stroke-width="2.4"/><rect x="124" y="98" width="30" height="8.5" rx="1.5" fill="#fffdf7" stroke="#26296b" stroke-width="2.2"/><line x1="131.5" y1="98.0" x2="131.5" y2="106.5" stroke="#26296b" stroke-width="1.2" stroke-linecap="round"/><line x1="139.0" y1="98.0" x2="139.0" y2="106.5" stroke="#26296b" stroke-width="1.2" stroke-linecap="round"/><line x1="146.5" y1="98.0" x2="146.5" y2="106.5" stroke="#26296b" stroke-width="1.2" stroke-linecap="round"/><g data-who="girl" display="none"><path d="M72 110.8l3.9.6 4.1.3 4.1.3 4.6.7 4.6.6 4 0 3.9-.1-.5 4.5-.4 4.3-.5 4.2-.3 4.2 0 4 .3 3.7 .4 3.9 .5 4.3 .3 4.4-.1 4.3" fill="none" stroke="#26296b" stroke-width="9.8" stroke-linecap="round" stroke-linejoin="round"/><path d="M72 110.8l3.9.6 4.1.3 4.1.3 4.6.7 4.6.6 4 0 3.9-.1-.5 4.5-.4 4.3-.5 4.2-.3 4.2 0 4 .3 3.7 .4 3.9 .5 4.3 .3 4.4-.1 4.3" fill="none" stroke="url(#hpsit20)" stroke-width="6.0" stroke-linecap="round" stroke-linejoin="round"/><path d="M72 110.8l3.9.6 4.1.3 4.1.3 4.6.7 4.6.6 4 0 3.9-.1-.5 4.5-.4 4.3-.5 4.2-.3 4.2 0 4 .3 3.7 .4 3.9 .5 4.3 .3 4.4-.1 4.3" fill="none" stroke="#fffdf7" stroke-width="5" stroke-linecap="round" stroke-linejoin="round"/><path d="M100.4 120.3l-.5 4.4-.3 4.5-.1 4.2 .2 4 .4 4 .6 4.5 .3 4.5-.1 4.6" fill="none" stroke="#26296b" stroke-width="10.2" stroke-linecap="round" stroke-linejoin="round"/><path d="M100.4 120.3l-.5 4.4-.3 4.5-.1 4.2 .2 4 .4 4 .6 4.5 .3 4.5-.1 4.6" fill="none" stroke="url(#hpsit20)" stroke-width="6.4" stroke-linecap="round" stroke-linejoin="round"/><g transform="translate(0.8 0)"><ellipse cx="104.0" cy="156.0" rx="6" ry="3" fill="#26296b"/></g><path d="M79.8 72.3l1.9 3.8 2.2 4 2.5 3.3 2.6 2.8 2.5 3.1 2.4 3.7 3.5.4 3.4-.1 3.7-.2 3.7 0 3.5 0 3.7 0" fill="none" stroke="#26296b" stroke-width="10.0" stroke-linecap="round" stroke-linejoin="round"/><path d="M79.8 72.3l1.9 3.8 2.2 4 2.5 3.3 2.6 2.8 2.5 3.1 2.4 3.7 3.5.4 3.4-.1 3.7-.2 3.7 0 3.5 0 3.7 0" fill="none" stroke="url(#hpsit20)" stroke-width="6.2" stroke-linecap="round" stroke-linejoin="round"/><path d="M79.8 72.3l1.9 3.8 2.2 4 2.5 3.3 2.6 2.8 2.5 3.1 2.4 3.7 3.5.4 3.4-.1 3.7-.2 3.7 0 3.5 0 3.7 0" fill="none" stroke="#fffdf7" stroke-width="5.2" stroke-linecap="round" stroke-linejoin="round"/><g transform="translate(-0.4 -0.8)"><polyline points="116.0,94.0 123.0,99.0" fill="none" stroke="#26296b" stroke-width="7.2" stroke-linecap="round" stroke-linejoin="round"/></g><g transform="translate(-0.4 -0.8)"><polyline points="116.0,94.0 123.0,99.0" fill="none" stroke="url(#hpsit20)" stroke-width="3.4" stroke-linecap="round" stroke-linejoin="round"/></g><g transform="translate(-0.4 -0.8)"><polyline points="116.0,94.0 123.0,99.0" fill="none" stroke="#fffdf7" stroke-width="3.6" stroke-linecap="round" stroke-linejoin="round"/></g><path d="M77 109.8l4.4.3 4.6.5 5.2.7 4.7.1 4-.5 4.4-.2 4.7.2 0 4.8-.3 4.6-.5 4.1-.5 3.9-.1 4.2 .3 4.4 .5 4.6 .5 4.5 .2 4.5 0 4.4" fill="none" stroke="#26296b" stroke-width="9.8" stroke-linecap="round" stroke-linejoin="round"/><path d="M77 109.8l4.4.3 4.6.5 5.2.7 4.7.1 4-.5 4.4-.2 4.7.2 0 4.8-.3 4.6-.5 4.1-.5 3.9-.1 4.2 .3 4.4 .5 4.6 .5 4.5 .2 4.5 0 4.4" fill="none" stroke="url(#hpsit20)" stroke-width="6.0" stroke-linecap="round" stroke-linejoin="round"/><path d="M77 109.8l4.4.3 4.6.5 5.2.7 4.7.1 4-.5 4.4-.2 4.7.2 0 4.8-.3 4.6-.5 4.1-.5 3.9-.1 4.2 .3 4.4 .5 4.6 .5 4.5 .2 4.5 0 4.4" fill="none" stroke="#fffdf7" stroke-width="5" stroke-linecap="round" stroke-linejoin="round"/><path d="M108.8 118.5l-.4 4-.5 3.6-.3 3.8 .1 4 .3 4.2 .5 4.2 .4 4.3 .2 4.2 0 4.1" fill="none" stroke="#26296b" stroke-width="10.2" stroke-linecap="round" stroke-linejoin="round"/><path d="M108.8 118.5l-.4 4-.5 3.6-.3 3.8 .1 4 .3 4.2 .5 4.2 .4 4.3 .2 4.2 0 4.1" fill="none" stroke="url(#hpsit20)" stroke-width="6.4" stroke-linecap="round" stroke-linejoin="round"/><g transform="translate(1 0.2)"><ellipse cx="112.0" cy="156.0" rx="6" ry="3" fill="#26296b"/></g><path d="M71 68.4l-.6 4.8-.8 4.4-.8 4.2-.7 4.4-.8 4.1-.6 3.5-.7 4.2-.7 5.2-.9 5.1 4.4.3 4 .6 4.5 1 4.6.6 5 1 .8-5 .6-5.4 .5-5.4 .5-4.4 .4-3.8 .3-3.9 .3-3.9 .2-3.6 .3-3.6-3.9-2.8-3.6-1.9-3.4-.7-4.2.1z" fill="#fffdf7" stroke="#26296b" stroke-width="2.2" stroke-linejoin="round"/><path d="M63.9 108.3l.8-4.4 .6-4.6 .7-4.1 .6-3.3 .8-3.5 .8-4.1 1.8-3.3 2-3.1 2-3.4 1.9-4 3.8.4 3.2.4 3.3 1.1 .9 3.9 1 3.5 1 3.2 1 3.2 .7 3.5 .8 3.6 .8 3.8 .9 4.2-.3 5.2-.7 4.9-.9 4.3-.8 4.3-3.6 1-3.2.7-3.2-2.2-3.5-1.8-3.6-2.3-3.2-2.8-2.9-2.4z" fill="url(#hpsit20)" stroke="#26296b" stroke-width="2.2" stroke-linejoin="round"/><g transform="translate(-0.1 0.1)"><line x1="90.4" y1="104.8" x2="82.4" y2="104.6" stroke="#fffdf7" stroke-width="1.3" stroke-linecap="round"/></g><g transform="translate(-0.4 0.2)"><line x1="90.3" y1="108.6" x2="82.3" y2="108.3" stroke="#fffdf7" stroke-width="1.3" stroke-linecap="round"/></g><g transform="translate(-0.8 0.2)"><line x1="90.1" y1="112.2" x2="82.1" y2="111.9" stroke="#fffdf7" stroke-width="1.3" stroke-linecap="round"/></g><g transform="translate(-1.1 0.5)"><line x1="90.0" y1="116.0" x2="82.0" y2="115.7" stroke="#fffdf7" stroke-width="1.3" stroke-linecap="round"/></g><path d="M83.3 71.1l2.3 4 2.7 3.6 2.8 2.6 2.5 3 2.3 3.5 2.3 3.4 3.5-.2 3.8-.1 3.8.3 3.6.1 3.8-.1 4 .2" fill="none" stroke="#26296b" stroke-width="10.0" stroke-linecap="round" stroke-linejoin="round"/><path d="M83.3 71.1l2.3 4 2.7 3.6 2.8 2.6 2.5 3 2.3 3.5 2.3 3.4 3.5-.2 3.8-.1 3.8.3 3.6.1 3.8-.1 4 .2" fill="none" stroke="url(#hpsit20)" stroke-width="6.2" stroke-linecap="round" stroke-linejoin="round"/><path d="M83.3 71.1l2.3 4 2.7 3.6 2.8 2.6 2.5 3 2.3 3.5 2.3 3.4 3.5-.2 3.8-.1 3.8.3 3.6.1 3.8-.1 4 .2" fill="none" stroke="#fffdf7" stroke-width="5.2" stroke-linecap="round" stroke-linejoin="round"/><g transform="translate(0 -0.2)"><polyline points="121.0,92.0 128.0,98.0" fill="none" stroke="#26296b" stroke-width="7.2" stroke-linecap="round" stroke-linejoin="round"/></g><g transform="translate(0 -0.2)"><polyline points="121.0,92.0 128.0,98.0" fill="none" stroke="url(#hpsit20)" stroke-width="3.4" stroke-linecap="round" stroke-linejoin="round"/></g><g transform="translate(0 -0.2)"><polyline points="121.0,92.0 128.0,98.0" fill="none" stroke="#fffdf7" stroke-width="3.6" stroke-linecap="round" stroke-linejoin="round"/></g><g transform="translate(0.4 -0.2)"><line x1="83.1" y1="60.9" x2="81.0" y2="68.0" stroke="#26296b" stroke-width="3.4" stroke-linecap="round"/></g><g transform="translate(0.9 0.2)"><path d="M80.2,67.9 Q72.6,67.6 73.7,73.8 Q79.0,73.2 80.2,67.9 Z" fill="#fffdf7" stroke="#26296b" stroke-width="1.1" stroke-linejoin="round"/></g><g transform="translate(0.1 0.4)"><path d="M81.8,68.1 Q89.3,69.6 86.8,75.3 Q81.8,73.5 81.8,68.1 Z" fill="#fffdf7" stroke="#26296b" stroke-width="1.1" stroke-linejoin="round"/></g><g transform="translate(0.6 0.2)"><path d="M80.5,72.6 l-3.2,-2.2 l-0.4,3.6 Z M80.5,72.6 l3.6,-1.4 l-0.4,3.6 Z" fill="#fffdf7" stroke="#26296b" stroke-width="1" stroke-linejoin="round"/></g><g transform="translate(84.0 53.0) rotate(6.8) scale(1 1)"><path d="M-8.1 -0.9l.9 3.9 2.5 3.7 3.3 2.3 3.2 0 3-2.1 2.2-3.4 .9-3.9-.8-4-2.4-3.1-3.2-1.7-3.4-.1-3.1 1.6-2.3 2.9z" fill="#fffdf7" stroke="#26296b" stroke-width="2.2"/><g transform="translate(0.2 -0.7)"><path d="M4.6,-8.6 C-2,-13 -11.6,-9 -11.2,1 C-11,8 -11.8,16 -12.6,23.4 C-9.8,25 -6.2,24.8 -3.6,23.4 C-4.6,15 -4.8,8 -3.8,2.2 C-3,-2.2 0,-5.4 5.8,-5.8 Z" fill="#26296b"/></g><g transform="translate(-0.3 -0.3)"><path d="M1.9,-10.4 C-0.4,-7.8 -2.4,-4.2 -3.4,0.4 L-5.9,0 C-4.9,-5 -2.6,-8.8 -0.4,-11.6 Z" fill="#fffdf7" stroke="#26296b" stroke-width="1.1" stroke-linejoin="round"/></g></g></g><g data-who="boy"><path d="M72 110.8l3.9.6 4.1.3 4.1.3 4.6.7 4.6.6 4 0 3.9-.1-.5 4.5-.4 4.3-.5 4.2-.3 4.2 0 4 .3 3.7 .4 3.9 .5 4.3 .3 4.4-.1 4.3" fill="none" stroke="#26296b" stroke-width="9.8" stroke-linecap="round" stroke-linejoin="round"/><path d="M72 110.8l3.9.6 4.1.3 4.1.3 4.6.7 4.6.6 4 0 3.9-.1-.5 4.5-.4 4.3-.5 4.2-.3 4.2 0 4 .3 3.7 .4 3.9 .5 4.3 .3 4.4-.1 4.3" fill="none" stroke="url(#hpsit20)" stroke-width="6.0" stroke-linecap="round" stroke-linejoin="round"/><g transform="translate(0.8 0)"><ellipse cx="104.0" cy="156.0" rx="6" ry="3" fill="#26296b"/></g><path d="M79.8 72.3l1.9 3.8 2.2 4 2.5 3.3 2.6 2.8 2.5 3.1 2.4 3.7 3.5.4 3.4-.1 3.7-.2 3.7 0 3.5 0 3.7 0" fill="none" stroke="#26296b" stroke-width="10.0" stroke-linecap="round" stroke-linejoin="round"/><path d="M79.8 72.3l1.9 3.8 2.2 4 2.5 3.3 2.6 2.8 2.5 3.1 2.4 3.7 3.5.4 3.4-.1 3.7-.2 3.7 0 3.5 0 3.7 0" fill="none" stroke="url(#hpsit20)" stroke-width="6.2" stroke-linecap="round" stroke-linejoin="round"/><g transform="translate(-0.4 -0.8)"><polyline points="116.0,94.0 123.0,99.0" fill="none" stroke="#26296b" stroke-width="7.2" stroke-linecap="round" stroke-linejoin="round"/></g><g transform="translate(-0.4 -0.8)"><polyline points="116.0,94.0 123.0,99.0" fill="none" stroke="url(#hpsit20)" stroke-width="3.4" stroke-linecap="round" stroke-linejoin="round"/></g><g transform="translate(-0.4 -0.8)"><polyline points="116.0,94.0 123.0,99.0" fill="none" stroke="#fffdf7" stroke-width="3.6" stroke-linecap="round" stroke-linejoin="round"/></g><path d="M77 109.8l4.4.3 4.6.5 5.2.7 4.7.1 4-.5 4.4-.2 4.7.2 0 4.8-.3 4.6-.5 4.1-.5 3.9-.1 4.2 .3 4.4 .5 4.6 .5 4.5 .2 4.5 0 4.4" fill="none" stroke="#26296b" stroke-width="9.8" stroke-linecap="round" stroke-linejoin="round"/><path d="M77 109.8l4.4.3 4.6.5 5.2.7 4.7.1 4-.5 4.4-.2 4.7.2 0 4.8-.3 4.6-.5 4.1-.5 3.9-.1 4.2 .3 4.4 .5 4.6 .5 4.5 .2 4.5 0 4.4" fill="none" stroke="url(#hpsit20)" stroke-width="6.0" stroke-linecap="round" stroke-linejoin="round"/><g transform="translate(1 0.2)"><ellipse cx="112.0" cy="156.0" rx="6" ry="3" fill="#26296b"/></g><path d="M71 68.4l-.6 4.8-.8 4.4-.8 4.2-.7 4.4-.8 4.1-.6 3.5-.7 4.2-.7 5.2-.9 5.1 4.4.3 4 .6 4.5 1 4.6.6 5 1 .8-5 .6-5.4 .5-5.4 .5-4.4 .4-3.8 .3-3.9 .3-3.9 .2-3.6 .3-3.6-3.9-2.8-3.6-1.9-3.4-.7-4.2.1z" fill="url(#hpsit20)" stroke="#26296b" stroke-width="2.2" stroke-linejoin="round"/><path d="M83.3 71.1l2.3 4 2.7 3.6 2.8 2.6 2.5 3 2.3 3.5 2.3 3.4 3.5-.2 3.8-.1 3.8.3 3.6.1 3.8-.1 4 .2" fill="none" stroke="#26296b" stroke-width="10.0" stroke-linecap="round" stroke-linejoin="round"/><path d="M83.3 71.1l2.3 4 2.7 3.6 2.8 2.6 2.5 3 2.3 3.5 2.3 3.4 3.5-.2 3.8-.1 3.8.3 3.6.1 3.8-.1 4 .2" fill="none" stroke="url(#hpsit20)" stroke-width="6.2" stroke-linecap="round" stroke-linejoin="round"/><g transform="translate(0 -0.2)"><polyline points="121.0,92.0 128.0,98.0" fill="none" stroke="#26296b" stroke-width="7.2" stroke-linecap="round" stroke-linejoin="round"/></g><g transform="translate(0 -0.2)"><polyline points="121.0,92.0 128.0,98.0" fill="none" stroke="url(#hpsit20)" stroke-width="3.4" stroke-linecap="round" stroke-linejoin="round"/></g><g transform="translate(0 -0.2)"><polyline points="121.0,92.0 128.0,98.0" fill="none" stroke="#fffdf7" stroke-width="3.6" stroke-linecap="round" stroke-linejoin="round"/></g><g transform="translate(0.4 -0.2)"><line x1="83.1" y1="60.9" x2="81.0" y2="68.0" stroke="#26296b" stroke-width="3.4" stroke-linecap="round"/></g><g transform="translate(84.0 53.0) rotate(6.8) scale(1 1)"><path d="M-8.1 -0.9l.9 3.9 2.5 3.7 3.3 2.3 3.2 0 3-2.1 2.2-3.4 .9-3.9-.8-4-2.4-3.1-3.2-1.7-3.4-.1-3.1 1.6-2.3 2.9z" fill="#fffdf7" stroke="#26296b" stroke-width="2.2"/><g transform="translate(-0.4 -0.5)"><path d="M6.4,-6.4 C3,-12.6 -9,-12 -9.6,-1.6 C-9.4,1.6 -8.6,3 -7.4,3.4 C-6.6,0 -5,-3.4 -1.6,-4.4 C1.6,-5.4 4.4,-5.2 6.4,-6.4 Z" fill="#26296b"/></g></g></g><g transform="translate(0.3 0.1)"><circle cx="83.0" cy="71.0" r="3.2" fill="#fffdf7" stroke="#26296b" stroke-width="1.3"/></g><g transform="translate(0.2 0.2)"><circle cx="98.0" cy="91.0" r="3.2" fill="#e4572e" stroke="#26296b" stroke-width="1.3"/></g><g transform="translate(-0.3 -0.6)"><circle cx="121.0" cy="92.0" r="3.2" fill="#e4572e" stroke="#26296b" stroke-width="1.3"/></g><g transform="translate(-1 -0.2)"><circle cx="78.0" cy="110.0" r="3.2" fill="#fffdf7" stroke="#26296b" stroke-width="1.3"/></g><g transform="translate(1 -0.1)"><circle cx="108.0" cy="111.0" r="3.2" fill="#fffdf7" stroke="#26296b" stroke-width="1.3"/></g><g transform="translate(1.1 -0.1)"><circle cx="108.0" cy="155.0" r="3.2" fill="#fffdf7" stroke="#26296b" stroke-width="1.3"/></g><text stroke="#fffdf7" stroke-width="2.4" stroke-linejoin="round" paint-order="stroke" x="105" y="72" text-anchor="start" font-size="8.5" font-weight="800" fill="#e4572e" font-family="Inter,sans-serif">elbow</text><path d="M104,70 L99.5,86.5" stroke="#e4572e" stroke-width="1.2" stroke-linecap="round"/><text stroke="#fffdf7" stroke-width="2.4" stroke-linejoin="round" paint-order="stroke" x="126" y="80" text-anchor="start" font-size="8.5" font-weight="800" fill="#e4572e" font-family="Inter,sans-serif">wrist</text><path d="M125.5,78.5 L123,86" stroke="#e4572e" stroke-width="1.2" stroke-linecap="round"/></svg>