<svg viewBox="0 0 340 228" style="width: 100%; max-width: 460px; display: block; margin: 0px auto;"><line x1="0" x2="340" y1="214" y2="214" stroke="#c9c0aa" stroke-width="2"></line><line x1="0" x2="238" y1="118" y2="118" stroke="#e4572e" stroke-dasharray="4 4" stroke-opacity="0.7"></line><text x="6" y="114" font-size="8.5" font-weight="800" fill="#e4572e">key level</text><rect x="94" y="125" width="72" height="9" rx="3" fill="#6d6f9c"></rect><line x1="102" x2="102" y1="134" y2="214" stroke="#6d6f9c" stroke-width="4"></line><line x1="158" x2="158" y1="134" y2="214" stroke="#6d6f9c" stroke-width="4"></line><line x1="136" y1="119" x2="192" y2="127" stroke="#5d6f86" stroke-width="15" stroke-linecap="round"></line><line x1="192" y1="127" x2="198" y2="201" stroke="#c8361b" stroke-width="12" stroke-linecap="round"></line><line x1="194" y1="204" x2="214" y2="204" stroke="#26296b" stroke-width="7" stroke-linecap="round"></line><rect x="262" y="38" width="78" height="80" fill="#26296b"></rect><rect x="246" y="128" width="94" height="86" fill="#26296b"></rect><rect x="238" y="118" width="102" height="10" fill="#fff" stroke="#7f81a8"></rect><rect x="272" y="115" width="68" height="4" fill="#26296b"></rect><line x1="136" y1="119" x2="149.54455785802057" y2="42.184995265047775" stroke="#7e86c0" stroke-width="26" stroke-linecap="round"></line><circle cx="156.54455785802057" cy="18.184995265047775" r="14" fill="#f8e6dc" stroke="#d9a27a" stroke-width="1.5"></circle><line x1="149.54455785802057" y1="42.184995265047775" x2="171.56640582500845" y2="87.07417226929759" stroke="#7e86c0" stroke-width="11" stroke-linecap="round"></line><line x1="171.56640582500845" y1="87.07417226929759" x2="220" y2="106" stroke="#c8361b" stroke-width="9" stroke-linecap="round"></line><path d="M220,106 Q230,98 236,103 Q246,107 246,117" fill="none" stroke="#d9a27a" stroke-width="7" stroke-linecap="round"></path><circle cx="171.56640582500845" cy="87.07417226929759" r="5" fill="#fff" stroke="#c8361b" stroke-width="2.5"></circle><circle cx="220" cy="106" r="3.5" fill="#fff" stroke="#c8361b" stroke-width="2"></circle><line x1="153.56640582500845" x2="241.56640582500845" y1="87.07417226929759" y2="87.07417226929759" stroke="#26296b" stroke-opacity="0.25" stroke-dasharray="2 3"></line><text x="167.56640582500845" y="103.07417226929759" font-size="8.5" font-weight="900" text-anchor="middle" stroke="#fff" stroke-width="3" paint-order="stroke" fill="#c8361b">elbow</text></svg>