<svg xmlns="http://www.w3.org/2000/svg" viewBox="0 0 300 162" width="600" height="324"><defs><pattern id="penh2" width="3.2" height="3.2" patternUnits="userSpaceOnUse" patternTransform="rotate(40)"><rect width="3.2" height="3.2" fill="#fffdf7"></rect><line x1="0" y1="0" x2="0" y2="3.2" stroke="#26296b" stroke-width="1.15"></line></pattern></defs><rect x="17" y="44" width="266" height="92" rx="2" fill="#fffdf7" stroke="#26296b" stroke-width="2.6"></rect><rect x="18" y="46" width="36" height="88" rx="1.5" fill="#fbe9e2"></rect><rect x="56" y="46" width="36" height="88" rx="1.5" fill="#fbe9e2"></rect><rect x="94" y="46" width="36" height="88" rx="1.5" fill="#fbe9e2"></rect><rect x="132" y="46" width="36" height="88" rx="1.5" fill="#e9eaf4"></rect><rect x="170" y="46" width="36" height="88" rx="1.5" fill="#e9eaf4"></rect><rect x="208" y="46" width="36" height="88" rx="1.5" fill="#e9eaf4"></rect><rect x="246" y="46" width="36" height="88" rx="1.5" fill="#e9eaf4"></rect><line x1="55" y1="44" x2="55" y2="136" fill="none" stroke="#26296b" stroke-width="1.2" stroke-linecap="round"></line><line x1="93" y1="44" x2="93" y2="136" fill="none" stroke="#26296b" stroke-width="1.2" stroke-linecap="round"></line><line x1="131" y1="44" x2="131" y2="136" fill="none" stroke="#26296b" stroke-width="1.2" stroke-linecap="round"></line><line x1="169" y1="44" x2="169" y2="136" fill="none" stroke="#26296b" stroke-width="1.2" stroke-linecap="round"></line><line x1="207" y1="44" x2="207" y2="136" fill="none" stroke="#26296b" stroke-width="1.2" stroke-linecap="round"></line><line x1="245" y1="44" x2="245" y2="136" fill="none" stroke="#26296b" stroke-width="1.2" stroke-linecap="round"></line><rect x="43.2" y="44" width="23.6" height="55.2" rx="1" fill="#26296b"></rect><rect x="81.2" y="44" width="23.6" height="55.2" rx="1" fill="#26296b"></rect><rect x="157.2" y="44" width="23.6" height="55.2" rx="1" fill="#26296b"></rect><rect x="195.2" y="44" width="23.6" height="55.2" rx="1" fill="#26296b"></rect><rect x="233.2" y="44" width="23.6" height="55.2" rx="1" fill="#26296b"></rect><polyline points="37.9,42 74,22 110.1,42" fill="none" stroke="#26296b" stroke-width="2.6" stroke-linecap="round" stroke-linejoin="round"></polyline><text x="74" y="17" text-anchor="middle" font-size="11.5" font-weight="900" fill="#26296b" font-family="Inter,sans-serif" stroke="#fffdf7" stroke-width="2.4" stroke-linejoin="round" paint-order="stroke">small house</text><polyline points="151.9,42 207,16 262.1,42" fill="none" stroke="#26296b" stroke-width="2.6" stroke-linecap="round" stroke-linejoin="round"></polyline><g transform="translate(-0.2 -1.1)"><rect x="233.1" y="20.5" width="5.2" height="9" rx="0.8" fill="#e4572e"></rect></g><text x="207" y="11" text-anchor="middle" font-size="11.5" font-weight="900" fill="#26296b" font-family="Inter,sans-serif" stroke="#fffdf7" stroke-width="2.4" stroke-linejoin="round" paint-order="stroke">big house</text><path d="M64.9 147.4L65.5 151.2L68.2 154.8L71.6 156.8L75.4 156.8L79.8 155.2L83.2 152L84.6 147.8L83.8 143.6L80.8 140.4L76.7 138.1L72.8 137.6L69.4 139.8L66.5 143.6Z" fill="#e4572e"></path><text x="74" y="152" text-anchor="middle" font-size="12.5" font-weight="900" fill="#fffdf7" font-family="Inter,sans-serif">2</text><path d="M197.5 148.9L198 152.3L200.4 154.7L204.4 156.8L209.2 157.3L213.5 155.4L216.4 152.1L217.4 148.3L216.2 144.7L213.8 141.4L210.5 139.4L206.4 139.4L202.2 141.1L199 144.6Z" fill="#e4572e"></path><text x="207" y="152" text-anchor="middle" font-size="12.5" font-weight="900" fill="#fffdf7" font-family="Inter,sans-serif">3</text></svg>