<svg xmlns="http://www.w3.org/2000/svg" viewBox="0 0 258 126" width="516" height="252"><defs><pattern id="penh7" width="3.2" height="3.2" patternUnits="userSpaceOnUse" patternTransform="rotate(40)"><rect width="3.2" height="3.2" fill="#fffdf7"></rect><line x1="0" y1="0" x2="0" y2="3.2" stroke="#26296b" stroke-width="1.15"></line></pattern></defs><rect x="10" y="30" width="238" height="86" rx="2" fill="#fffdf7" stroke="#26296b" stroke-width="2.4"></rect><rect x="11" y="32" width="32" height="82" rx="1.5" fill="#fbe9e2"></rect><rect x="45" y="32" width="32" height="82" rx="1.5" fill="#fbe9e2"></rect><rect x="79" y="32" width="32" height="82" rx="1.5" fill="#fbe9e2"></rect><rect x="113" y="32" width="32" height="82" rx="1.5" fill="#e9eaf4"></rect><rect x="147" y="32" width="32" height="82" rx="1.5" fill="#e9eaf4"></rect><rect x="181" y="32" width="32" height="82" rx="1.5" fill="#e9eaf4"></rect><rect x="215" y="32" width="32" height="82" rx="1.5" fill="#e9eaf4"></rect><line x1="44" y1="30" x2="44" y2="116" fill="none" stroke="#26296b" stroke-width="1.2" stroke-linecap="round"></line><line x1="78" y1="30" x2="78" y2="116" fill="none" stroke="#26296b" stroke-width="1.2" stroke-linecap="round"></line><line x1="112" y1="30" x2="112" y2="116" fill="none" stroke="#26296b" stroke-width="1.2" stroke-linecap="round"></line><line x1="146" y1="30" x2="146" y2="116" fill="none" stroke="#26296b" stroke-width="1.2" stroke-linecap="round"></line><line x1="180" y1="30" x2="180" y2="116" fill="none" stroke="#26296b" stroke-width="1.2" stroke-linecap="round"></line><line x1="214" y1="30" x2="214" y2="116" fill="none" stroke="#26296b" stroke-width="1.2" stroke-linecap="round"></line><rect x="33.5" y="30" width="21.1" height="51.6" rx="1" fill="#26296b"></rect><rect x="67.5" y="30" width="21.1" height="51.6" rx="1" fill="#26296b"></rect><rect x="135.5" y="30" width="21.1" height="51.6" rx="1" fill="#26296b"></rect><rect x="169.5" y="30" width="21.1" height="51.6" rx="1" fill="#26296b"></rect><rect x="203.5" y="30" width="21.1" height="51.6" rx="1" fill="#26296b"></rect><polyline points="130.7,28 180,6 229.3,28" fill="none" stroke="#26296b" stroke-width="2.6" stroke-linecap="round" stroke-linejoin="round"></polyline><g transform="translate(-0.7 -0.2)"><rect x="203" y="8.4" width="5.2" height="9" rx="0.8" fill="#e4572e"></rect></g><path d="M137.9 44.6L139.4 49L142.4 52.1L146 53L150 51.4L153.2 48.8L154.3 45L153.1 40.4L149.6 36.9L144.9 35.9L141.2 37.2L138.6 40.1Z" fill="#e4572e"></path><text x="146" y="47.6" text-anchor="middle" font-size="11" font-weight="900" fill="#fffdf7" font-family="Inter,sans-serif">2</text><path d="M172 44.7L173.2 48.4L176.2 51.5L180.6 52.8L184.6 51.6L187 48.7L187.7 44.7L186.4 40.3L183.8 37L180.1 36.2L176 37.5L173.1 40.8Z" fill="#e4572e"></path><text x="180" y="47.6" text-anchor="middle" font-size="11" font-weight="900" fill="#fffdf7" font-family="Inter,sans-serif">3</text><path d="M204.7 44.2L205.7 47.8L209.5 50.9L214.2 52.6L218.4 52.1L221.7 48.9L223.1 44.4L222.1 40.1L218.8 36.6L214.8 35.7L210.4 37.3L206.6 40.5Z" fill="#e4572e"></path><text x="214" y="47.6" text-anchor="middle" font-size="11" font-weight="900" fill="#fffdf7" font-family="Inter,sans-serif">4</text></svg>