<svg xmlns="http://www.w3.org/2000/svg" viewBox="0 14 560 140" width="1120" height="280"><defs><pattern id="penh6" width="3.2" height="3.2" patternUnits="userSpaceOnUse" patternTransform="rotate(40)"><rect width="3.2" height="3.2" fill="#fffdf7"></rect><line x1="0" y1="0" x2="0" y2="3.2" stroke="#26296b" stroke-width="1.15"></line></pattern></defs><rect x="24" y="56" width="512.2" height="64" rx="2" fill="#fffdf7" stroke="#26296b" stroke-width="2"></rect><line x1="33.9" y1="56" x2="33.9" y2="120" fill="none" stroke="#26296b" stroke-width="1.2" stroke-linecap="round"></line><line x1="43.7" y1="56" x2="43.7" y2="120" fill="none" stroke="#26296b" stroke-width="1.2" stroke-linecap="round"></line><line x1="53.6" y1="56" x2="53.6" y2="120" fill="none" stroke="#26296b" stroke-width="1.2" stroke-linecap="round"></line><line x1="63.4" y1="56" x2="63.4" y2="120" fill="none" stroke="#26296b" stroke-width="1.2" stroke-linecap="round"></line><line x1="73.3" y1="56" x2="73.3" y2="120" fill="none" stroke="#26296b" stroke-width="1.2" stroke-linecap="round"></line><line x1="83.1" y1="56" x2="83.1" y2="120" fill="none" stroke="#26296b" stroke-width="1.2" stroke-linecap="round"></line><line x1="93" y1="56" x2="93" y2="120" fill="none" stroke="#26296b" stroke-width="1.2" stroke-linecap="round"></line><line x1="102.8" y1="56" x2="102.8" y2="120" fill="none" stroke="#26296b" stroke-width="1.2" stroke-linecap="round"></line><line x1="112.7" y1="56" x2="112.7" y2="120" fill="none" stroke="#26296b" stroke-width="1.2" stroke-linecap="round"></line><line x1="122.5" y1="56" x2="122.5" y2="120" fill="none" stroke="#26296b" stroke-width="1.2" stroke-linecap="round"></line><line x1="132.4" y1="56" x2="132.4" y2="120" fill="none" stroke="#26296b" stroke-width="1.2" stroke-linecap="round"></line><line x1="142.2" y1="56" x2="142.2" y2="120" fill="none" stroke="#26296b" stroke-width="1.2" stroke-linecap="round"></line><line x1="152" y1="56" x2="152" y2="120" fill="none" stroke="#26296b" stroke-width="1.2" stroke-linecap="round"></line><line x1="161.9" y1="56" x2="161.9" y2="120" fill="none" stroke="#26296b" stroke-width="1.2" stroke-linecap="round"></line><line x1="171.8" y1="56" x2="171.8" y2="120" fill="none" stroke="#26296b" stroke-width="1.2" stroke-linecap="round"></line><line x1="181.6" y1="56" x2="181.6" y2="120" fill="none" stroke="#26296b" stroke-width="1.2" stroke-linecap="round"></line><line x1="191.5" y1="56" x2="191.5" y2="120" fill="none" stroke="#26296b" stroke-width="1.2" stroke-linecap="round"></line><line x1="201.3" y1="56" x2="201.3" y2="120" fill="none" stroke="#26296b" stroke-width="1.2" stroke-linecap="round"></line><line x1="211.2" y1="56" x2="211.2" y2="120" fill="none" stroke="#26296b" stroke-width="1.2" stroke-linecap="round"></line><line x1="221" y1="56" x2="221" y2="120" fill="none" stroke="#26296b" stroke-width="1.2" stroke-linecap="round"></line><line x1="230.9" y1="56" x2="230.9" y2="120" fill="none" stroke="#26296b" stroke-width="1.2" stroke-linecap="round"></line><line x1="240.7" y1="56" x2="240.7" y2="120" fill="none" stroke="#26296b" stroke-width="1.2" stroke-linecap="round"></line><line x1="250.6" y1="56" x2="250.6" y2="120" fill="none" stroke="#26296b" stroke-width="1.2" stroke-linecap="round"></line><line x1="260.4" y1="56" x2="260.4" y2="120" fill="none" stroke="#26296b" stroke-width="1.2" stroke-linecap="round"></line><line x1="270.3" y1="56" x2="270.3" y2="120" fill="none" stroke="#26296b" stroke-width="1.2" stroke-linecap="round"></line><line x1="280.1" y1="56" x2="280.1" y2="120" fill="none" stroke="#26296b" stroke-width="1.2" stroke-linecap="round"></line><line x1="290" y1="56" x2="290" y2="120" fill="none" stroke="#26296b" stroke-width="1.2" stroke-linecap="round"></line><line x1="299.8" y1="56" x2="299.8" y2="120" fill="none" stroke="#26296b" stroke-width="1.2" stroke-linecap="round"></line><line x1="309.7" y1="56" x2="309.7" y2="120" fill="none" stroke="#26296b" stroke-width="1.2" stroke-linecap="round"></line><line x1="319.5" y1="56" x2="319.5" y2="120" fill="none" stroke="#26296b" stroke-width="1.2" stroke-linecap="round"></line><line x1="329.3" y1="56" x2="329.3" y2="120" fill="none" stroke="#26296b" stroke-width="1.2" stroke-linecap="round"></line><line x1="339.2" y1="56" x2="339.2" y2="120" fill="none" stroke="#26296b" stroke-width="1.2" stroke-linecap="round"></line><line x1="349.1" y1="56" x2="349.1" y2="120" fill="none" stroke="#26296b" stroke-width="1.2" stroke-linecap="round"></line><line x1="358.9" y1="56" x2="358.9" y2="120" fill="none" stroke="#26296b" stroke-width="1.2" stroke-linecap="round"></line><line x1="368.8" y1="56" x2="368.8" y2="120" fill="none" stroke="#26296b" stroke-width="1.2" stroke-linecap="round"></line><line x1="378.6" y1="56" x2="378.6" y2="120" fill="none" stroke="#26296b" stroke-width="1.2" stroke-linecap="round"></line><line x1="388.5" y1="56" x2="388.5" y2="120" fill="none" stroke="#26296b" stroke-width="1.2" stroke-linecap="round"></line><line x1="398.3" y1="56" x2="398.3" y2="120" fill="none" stroke="#26296b" stroke-width="1.2" stroke-linecap="round"></line><line x1="408.2" y1="56" x2="408.2" y2="120" fill="none" stroke="#26296b" stroke-width="1.2" stroke-linecap="round"></line><line x1="418" y1="56" x2="418" y2="120" fill="none" stroke="#26296b" stroke-width="1.2" stroke-linecap="round"></line><line x1="427.9" y1="56" x2="427.9" y2="120" fill="none" stroke="#26296b" stroke-width="1.2" stroke-linecap="round"></line><line x1="437.7" y1="56" x2="437.7" y2="120" fill="none" stroke="#26296b" stroke-width="1.2" stroke-linecap="round"></line><line x1="447.6" y1="56" x2="447.6" y2="120" fill="none" stroke="#26296b" stroke-width="1.2" stroke-linecap="round"></line><line x1="457.4" y1="56" x2="457.4" y2="120" fill="none" stroke="#26296b" stroke-width="1.2" stroke-linecap="round"></line><line x1="467.3" y1="56" x2="467.3" y2="120" fill="none" stroke="#26296b" stroke-width="1.2" stroke-linecap="round"></line><line x1="477.1" y1="56" x2="477.1" y2="120" fill="none" stroke="#26296b" stroke-width="1.2" stroke-linecap="round"></line><line x1="487" y1="56" x2="487" y2="120" fill="none" stroke="#26296b" stroke-width="1.2" stroke-linecap="round"></line><line x1="496.8" y1="56" x2="496.8" y2="120" fill="none" stroke="#26296b" stroke-width="1.2" stroke-linecap="round"></line><line x1="506.7" y1="56" x2="506.7" y2="120" fill="none" stroke="#26296b" stroke-width="1.2" stroke-linecap="round"></line><line x1="516.5" y1="56" x2="516.5" y2="120" fill="none" stroke="#26296b" stroke-width="1.2" stroke-linecap="round"></line><line x1="526.3" y1="56" x2="526.3" y2="120" fill="none" stroke="#26296b" stroke-width="1.2" stroke-linecap="round"></line><rect x="30.8" y="56" width="6.1" height="38.4" rx="1" fill="#26296b"></rect><rect x="50.5" y="56" width="6.1" height="38.4" rx="1" fill="#26296b"></rect><rect x="60.3" y="56" width="6.1" height="38.4" rx="1" fill="#26296b"></rect><rect x="80" y="56" width="6.1" height="38.4" rx="1" fill="#26296b"></rect><rect x="89.9" y="56" width="6.1" height="38.4" rx="1" fill="#26296b"></rect><rect x="99.7" y="56" width="6.1" height="38.4" rx="1" fill="#26296b"></rect><rect x="119.4" y="56" width="6.1" height="38.4" rx="1" fill="#26296b"></rect><rect x="129.3" y="56" width="6.1" height="38.4" rx="1" fill="#26296b"></rect><rect x="149" y="56" width="6.1" height="38.4" rx="1" fill="#26296b"></rect><rect x="158.8" y="56" width="6.1" height="38.4" rx="1" fill="#26296b"></rect><rect x="168.7" y="56" width="6.1" height="38.4" rx="1" fill="#26296b"></rect><rect x="188.4" y="56" width="6.1" height="38.4" rx="1" fill="#26296b"></rect><rect x="198.2" y="56" width="6.1" height="38.4" rx="1" fill="#26296b"></rect><rect x="217.9" y="56" width="6.1" height="38.4" rx="1" fill="#26296b"></rect><rect x="227.8" y="56" width="6.1" height="38.4" rx="1" fill="#26296b"></rect><rect x="237.6" y="56" width="6.1" height="38.4" rx="1" fill="#26296b"></rect><rect x="257.3" y="56" width="6.1" height="38.4" rx="1" fill="#26296b"></rect><rect x="267.2" y="56" width="6.1" height="38.4" rx="1" fill="#26296b"></rect><rect x="286.9" y="56" width="6.1" height="38.4" rx="1" fill="#26296b"></rect><rect x="296.7" y="56" width="6.1" height="38.4" rx="1" fill="#26296b"></rect><rect x="306.6" y="56" width="6.1" height="38.4" rx="1" fill="#26296b"></rect><rect x="326.3" y="56" width="6.1" height="38.4" rx="1" fill="#26296b"></rect><rect x="336.1" y="56" width="6.1" height="38.4" rx="1" fill="#26296b"></rect><rect x="355.8" y="56" width="6.1" height="38.4" rx="1" fill="#26296b"></rect><rect x="365.7" y="56" width="6.1" height="38.4" rx="1" fill="#26296b"></rect><rect x="375.5" y="56" width="6.1" height="38.4" rx="1" fill="#26296b"></rect><rect x="395.2" y="56" width="6.1" height="38.4" rx="1" fill="#26296b"></rect><rect x="405.1" y="56" width="6.1" height="38.4" rx="1" fill="#26296b"></rect><rect x="424.8" y="56" width="6.1" height="38.4" rx="1" fill="#26296b"></rect><rect x="434.6" y="56" width="6.1" height="38.4" rx="1" fill="#26296b"></rect><rect x="444.5" y="56" width="6.1" height="38.4" rx="1" fill="#26296b"></rect><rect x="464.2" y="56" width="6.1" height="38.4" rx="1" fill="#26296b"></rect><rect x="474" y="56" width="6.1" height="38.4" rx="1" fill="#26296b"></rect><rect x="493.7" y="56" width="6.1" height="38.4" rx="1" fill="#26296b"></rect><rect x="503.6" y="56" width="6.1" height="38.4" rx="1" fill="#26296b"></rect><rect x="513.4" y="56" width="6.1" height="38.4" rx="1" fill="#26296b"></rect><polyline points="29.4,54 33.9,44 38.3,54" fill="none" stroke="#26296b" stroke-width="2.6" stroke-linecap="round" stroke-linejoin="round"></polyline><text x="31.9" y="27" text-anchor="start" font-size="8.5" font-weight="900" fill="#e4572e" font-family="Inter,sans-serif" stroke="#fffdf7" stroke-width="2.4" stroke-linejoin="round" paint-order="stroke">the kennel</text><path d="M33.9,30 L33.9,42" fill="none" stroke="#e4572e" stroke-width="1.2" stroke-linejoin="round"></path><polyline points="49.1,54 58.5,45 67.8,54" fill="none" stroke="#26296b" stroke-width="1.8" stroke-linecap="round" stroke-linejoin="round"></polyline><text x="58.5" y="42" text-anchor="middle" font-size="8.5" font-weight="900" fill="#26296b" font-family="Inter,sans-serif" stroke="#fffdf7" stroke-width="2.4" stroke-linejoin="round" paint-order="stroke">1</text><polyline points="78.7,54 92.9,42 107.2,54" fill="none" stroke="#26296b" stroke-width="1.8" stroke-linecap="round" stroke-linejoin="round"></polyline><polyline points="118.1,54 127.4,45 136.8,54" fill="none" stroke="#26296b" stroke-width="1.8" stroke-linecap="round" stroke-linejoin="round"></polyline><text x="127.4" y="42" text-anchor="middle" font-size="8.5" font-weight="900" fill="#26296b" font-family="Inter,sans-serif" stroke="#fffdf7" stroke-width="2.4" stroke-linejoin="round" paint-order="stroke">2</text><polyline points="147.6,54 161.9,42 176.2,54" fill="none" stroke="#26296b" stroke-width="1.8" stroke-linecap="round" stroke-linejoin="round"></polyline><polyline points="187,54 196.4,45 205.7,54" fill="none" stroke="#26296b" stroke-width="1.8" stroke-linecap="round" stroke-linejoin="round"></polyline><text x="196.4" y="42" text-anchor="middle" font-size="8.5" font-weight="900" fill="#26296b" font-family="Inter,sans-serif" stroke="#fffdf7" stroke-width="2.4" stroke-linejoin="round" paint-order="stroke">3</text><polyline points="216.6,54 230.9,42 245.1,54" fill="none" stroke="#26296b" stroke-width="1.8" stroke-linecap="round" stroke-linejoin="round"></polyline><polyline points="256,54 265.3,45 274.7,54" fill="none" stroke="#26296b" stroke-width="1.8" stroke-linecap="round" stroke-linejoin="round"></polyline><text x="265.3" y="42" text-anchor="middle" font-size="8.5" font-weight="900" fill="#26296b" font-family="Inter,sans-serif" stroke="#fffdf7" stroke-width="2.4" stroke-linejoin="round" paint-order="stroke">4</text><polyline points="285.5,54 299.8,42 314.1,54" fill="none" stroke="#26296b" stroke-width="1.8" stroke-linecap="round" stroke-linejoin="round"></polyline><polyline points="324.9,54 334.3,45 343.6,54" fill="none" stroke="#26296b" stroke-width="1.8" stroke-linecap="round" stroke-linejoin="round"></polyline><text x="334.3" y="42" text-anchor="middle" font-size="8.5" font-weight="900" fill="#26296b" font-family="Inter,sans-serif" stroke="#fffdf7" stroke-width="2.4" stroke-linejoin="round" paint-order="stroke">5</text><polyline points="354.5,54 368.8,42 383,54" fill="none" stroke="#26296b" stroke-width="1.8" stroke-linecap="round" stroke-linejoin="round"></polyline><polyline points="393.9,54 403.2,45 412.6,54" fill="none" stroke="#26296b" stroke-width="1.8" stroke-linecap="round" stroke-linejoin="round"></polyline><text x="403.2" y="42" text-anchor="middle" font-size="8.5" font-weight="900" fill="#26296b" font-family="Inter,sans-serif" stroke="#fffdf7" stroke-width="2.4" stroke-linejoin="round" paint-order="stroke">6</text><polyline points="423.4,54 437.7,42 452,54" fill="none" stroke="#26296b" stroke-width="1.8" stroke-linecap="round" stroke-linejoin="round"></polyline><polyline points="462.8,54 472.2,45 481.5,54" fill="none" stroke="#26296b" stroke-width="1.8" stroke-linecap="round" stroke-linejoin="round"></polyline><text x="472.2" y="42" text-anchor="middle" font-size="8.5" font-weight="900" fill="#26296b" font-family="Inter,sans-serif" stroke="#fffdf7" stroke-width="2.4" stroke-linejoin="round" paint-order="stroke">7</text><polyline points="492.4,54 506.7,42 520.9,54" fill="none" stroke="#26296b" stroke-width="1.8" stroke-linecap="round" stroke-linejoin="round"></polyline><rect x="251.7" y="100" width="7.5" height="17" rx="1" fill="#e4572e"></rect><path d="M255.5,134 L255.5,123" fill="none" stroke="#e4572e" stroke-width="1.6" stroke-linejoin="round"></path><path d="M252.5,127 L255.5,122 L258.5,127 Z" fill="#e4572e" stroke-linejoin="round"></path><text x="255.5" y="147" text-anchor="middle" font-size="10" font-weight="900" fill="#e4572e" font-family="Inter,sans-serif" stroke="#fffdf7" stroke-width="2.4" stroke-linejoin="round" paint-order="stroke">middle C: the ground</text><text x="240.6" y="132" text-anchor="end" font-size="8.5" font-weight="800" fill="#26296b" font-family="Inter,sans-serif" stroke="#fffdf7" stroke-width="2.4" stroke-linejoin="round" paint-order="stroke">← down under the sea</text><text x="270.4" y="132" text-anchor="start" font-size="8.5" font-weight="800" fill="#26296b" font-family="Inter,sans-serif" stroke="#fffdf7" stroke-width="2.4" stroke-linejoin="round" paint-order="stroke">up into the sky →</text><g transform="translate(0.3 0.5)"><ellipse cx="0" cy="0" rx="5.2" ry="2.4" fill="#fffdf7" stroke="#26296b" stroke-width="1" transform="matrix(0.5298 -0.2817 0.2817 0.5298 5 44.2)"></ellipse></g><g transform="translate(0.6 0.2)"><ellipse cx="0" cy="0" rx="6.2" ry="2.6" fill="#fffdf7" stroke="#26296b" stroke-width="1" transform="matrix(0.5196 0.3 -0.3 0.5196 16.4 44.2)"></ellipse></g><g transform="translate(-0.1 0.7)"><path d="M2,41.8 L-1,43 L2,43.6 Z" fill="#fffdf7" stroke="#26296b" stroke-width="0.8" stroke-linejoin="round"></path></g><g transform="translate(0.5 0.2)"><ellipse cx="22.4" cy="39.4" rx="3.36" ry="2.64" fill="#fffdf7" stroke="#26296b" stroke-width="1.1"></ellipse></g><g transform="translate(0.3 0.1)"><ellipse cx="23.4" cy="38.7" rx="0.57" ry="0.57" fill="#26296b"></ellipse></g><path d="M2.2 42.9L3.2 38.5L5.2 35.5L7.8 34.1L11.3 34L15.1 34.9L18 36.6L19.9 39.2L20.8 42.7L16 43L11.3 42.9L7 42.7Z" fill="#fffdf7" stroke="#26296b" stroke-width="1.1" stroke-linejoin="round"></path><g transform="translate(0.4 0.6)"><path d="M8.3,36.4 L13.7,36.4 L14.9,39.4 L13.7,42.1 L8.3,42.1 L7.1,39.4 Z" fill="none" stroke="#26296b" stroke-width="0.8" stroke-linejoin="round"></path></g><g transform="translate(0.6 0.1)"><line x1="7.1" y1="39.4" x2="2.3" y2="40.6" fill="none" stroke="#26296b" stroke-width="0.7" stroke-linecap="round"></line></g><g transform="translate(0.7 0.9)"><line x1="14.9" y1="39.4" x2="19.7" y2="40.6" fill="none" stroke="#26296b" stroke-width="0.7" stroke-linecap="round"></line></g><g transform="translate(0.5 0.1)"><line x1="8.3" y1="36.4" x2="6.8" y2="34" fill="none" stroke="#26296b" stroke-width="0.7" stroke-linecap="round"></line></g><g transform="translate(0.4 1)"><line x1="13.7" y1="36.4" x2="15.2" y2="34" fill="none" stroke="#26296b" stroke-width="0.7" stroke-linecap="round"></line></g><path d="M-2.2,47.2 Q2.2,44.8 6.6,47.2 Q11,44.8 15.4,47.2 Q19.8,44.8 24.2,47.2" fill="none" stroke="#26296b" stroke-width="1" stroke-linejoin="round"></path><path d="M519.8,40.1 Q517.8,35.5 523.1,34.9 Q524.4,30.3 529,31.6 Q533.6,29 535.5,34.2 Q539.5,34.9 537.5,40.1 Z" fill="#fffdf7" stroke="#26296b" stroke-width="1.3" stroke-linejoin="round"></path><g transform="translate(0.2 -0.2)"><ellipse cx="551.3" cy="26" rx="5.739999999999999" ry="4.428" fill="#fffdf7" stroke="#26296b" stroke-width="1.5"></ellipse></g><g transform="translate(0.2 -0.3)"><ellipse cx="556.2" cy="22.7" rx="3.1159999999999997" ry="2.788" fill="#fffdf7" stroke="#26296b" stroke-width="1.5"></ellipse></g><g transform="translate(0 0.1)"><path d="M559,22.2 L561.9,23 L559,23.9 Z" fill="#e4572e" stroke-linejoin="round"></path></g><g transform="translate(0.1 -0.4)"><ellipse cx="556.7" cy="21.9" rx="0.738" ry="0.738" fill="#26296b"></ellipse></g><g transform="translate(0.2 -0.2)"><path d="M549.6,24.8 Q545.5,21.1 543.1,25.2" fill="none" stroke="#26296b" stroke-width="1.3" stroke-linejoin="round"></path></g><g transform="translate(0.2 0.7)"><path d="M545.9,27.1 L542.3,28.8 M545.9,28.3 L542.3,30.1" fill="none" stroke="#26296b" stroke-width="1.1" stroke-linejoin="round"></path></g><text x="561.9" y="17.8" text-anchor="start" font-size="7.38" font-weight="800" fill="#e4572e" font-family="Inter,sans-serif" stroke="#fffdf7" stroke-width="2.4" stroke-linejoin="round" paint-order="stroke">♪</text></svg>