<svg xmlns="http://www.w3.org/2000/svg" viewBox="0 34 340 200" width="680" height="400"><line x1="4" x2="336" y1="100" y2="100" stroke="#26296b" stroke-opacity="0.75" stroke-width="1.3"></line><line x1="4" x2="336" y1="90" y2="90" stroke="#26296b" stroke-opacity="0.75" stroke-width="1.3"></line><line x1="4" x2="336" y1="80" y2="80" stroke="#26296b" stroke-opacity="0.75" stroke-width="1.3"></line><line x1="4" x2="336" y1="70" y2="70" stroke="#26296b" stroke-opacity="0.75" stroke-width="1.3"></line><line x1="4" x2="336" y1="60" y2="60" stroke="#26296b" stroke-opacity="0.75" stroke-width="1.3"></line><line x1="4" x2="336" y1="204" y2="204" stroke="#26296b" stroke-opacity="0.75" stroke-width="1.3"></line><line x1="4" x2="336" y1="194" y2="194" stroke="#26296b" stroke-opacity="0.75" stroke-width="1.3"></line><line x1="4" x2="336" y1="184" y2="184" stroke="#26296b" stroke-opacity="0.75" stroke-width="1.3"></line><line x1="4" x2="336" y1="174" y2="174" stroke="#26296b" stroke-opacity="0.75" stroke-width="1.3"></line><line x1="4" x2="336" y1="164" y2="164" stroke="#26296b" stroke-opacity="0.75" stroke-width="1.3"></line><line x1="4" x2="4" y1="60" y2="204" stroke="#26296b" stroke-width="1.8"></line><g transform="translate(5.970588235294118 97.77941176470588) scale(1.0147058823529411)" style="visibility: visible;"><text x="0" y="0" font-size="40" fill="#26296b" style="font-family: &quot;Noto Music&quot;, &quot;Apple Symbols&quot;, &quot;Segoe UI Symbol&quot;, serif;">𝄞</text></g><g transform="translate(5.935483870967742 200.16129032258064) scale(1.032258064516129)" style="visibility: visible;"><text x="0" y="0" font-size="40" fill="#26296b" style="font-family: &quot;Noto Music&quot;, &quot;Apple Symbols&quot;, &quot;Segoe UI Symbol&quot;, serif;">𝄢</text></g><g><line x1="84" x2="108" y1="110" y2="110" stroke="#26296b" stroke-width="1.4"></line><ellipse cx="96" cy="110" rx="7.4" ry="5.2" fill="#e4572e"></ellipse><ellipse cx="96" cy="110" rx="3.4" ry="2.7" transform="rotate(-38 96 110)" fill="#fff"></ellipse><line x1="92" x2="100" y1="110" y2="110" stroke="#26296b" stroke-opacity="0.75" stroke-width="1.3"></line></g><g><line x1="84" x2="108" y1="154" y2="154" stroke="#26296b" stroke-width="1.4"></line><ellipse cx="96" cy="154" rx="7.4" ry="5.2" fill="#e4572e"></ellipse><ellipse cx="96" cy="154" rx="3.4" ry="2.7" transform="rotate(-38 96 154)" fill="#fff"></ellipse><line x1="92" x2="100" y1="154" y2="154" stroke="#26296b" stroke-opacity="0.75" stroke-width="1.3"></line></g><g style="font-family: Inter, &quot;Apple SD Gothic Neo&quot;, &quot;Noto Sans KR&quot;, sans-serif; paint-order: stroke; stroke: rgb(250, 246, 236); stroke-width: 3.5; stroke-linejoin: round;"><line x1="96" x2="96" y1="119" y2="145" stroke="#e4572e" stroke-width="1.4" stroke-dasharray="4 3.5"></line><text x="108" y="135.5" font-size="9.5" font-weight="900" fill="#e4572e" text-anchor="start">the same key!</text><text x="116" y="113.5" font-size="8.5" font-weight="800" fill="#26296b" text-anchor="start">just under the Queen's staff</text><text x="116" y="157.5" font-size="8.5" font-weight="800" fill="#26296b" text-anchor="start">just over the King's staff</text></g><g transform="translate(60 96) scale(0.55)"><defs><pattern id="penh8" width="3.2" height="3.2" patternUnits="userSpaceOnUse" patternTransform="rotate(40)"><rect width="3.2" height="3.2" fill="#fffdf7"></rect><line x1="0" y1="0" x2="0" y2="3.2" stroke="#26296b" stroke-width="1.15"></line></pattern></defs><path d="M12.4 39.4L13.8 36L17.2 33.5L22.2 32.1L27 32.6L30.6 34.9L32.2 38.5L28 38.4L24.2 38.6L20.6 39.2L16.6 39.7Z" fill="#fbe9e2" stroke="#26296b" stroke-width="1.5" stroke-linejoin="round"></path><g transform="translate(-0.1 0)"><ellipse cx="15.4" cy="26.6" rx="2.1" ry="2" fill="#26296b" stroke="#26296b" stroke-width="0.9"></ellipse></g><g transform="translate(0.1 0.3)"><ellipse cx="14.6" cy="30" rx="2.1" ry="2" fill="#26296b" stroke="#26296b" stroke-width="0.9"></ellipse></g><g transform="translate(0.3 0.8)"><ellipse cx="14.2" cy="33.4" rx="2.1" ry="2" fill="#26296b" stroke="#26296b" stroke-width="0.9"></ellipse></g><g transform="translate(0.4 1)"><path d="M14.1,35.6 L16.8,34.2 L16.6,37.6 Z M14.1,35.6 L11.4,34.2 L11.6,37.6 Z" fill="#e4572e" stroke="#26296b" stroke-width="0.8" stroke-linejoin="round"></path></g><g transform="translate(-0.3 0.2)"><ellipse cx="28.6" cy="26.6" rx="2.1" ry="2" fill="#26296b" stroke="#26296b" stroke-width="0.9"></ellipse></g><g transform="translate(-0.3 0)"><ellipse cx="29.4" cy="30" rx="2.1" ry="2" fill="#26296b" stroke="#26296b" stroke-width="0.9"></ellipse></g><g transform="translate(-0.2 -0.2)"><ellipse cx="29.8" cy="33.4" rx="2.1" ry="2" fill="#26296b" stroke="#26296b" stroke-width="0.9"></ellipse></g><g transform="translate(-0.1 -0.2)"><path d="M29.9,35.6 L27.2,34.2 L27.4,37.6 Z M29.9,35.6 L32.6,34.2 L32.4,37.6 Z" fill="#e4572e" stroke="#26296b" stroke-width="0.8" stroke-linejoin="round"></path></g><g transform="translate(0.2 0.1)"><path d="M18.4,32.1 Q22,35.2 25.6,32.1" fill="none" stroke="#e4572e" stroke-width="1.7" stroke-linejoin="round"></path></g><g transform="translate(0.2 0.6)"><ellipse cx="22" cy="23.6" rx="6.3" ry="7" fill="#fffdf7" stroke="#26296b" stroke-width="1.8"></ellipse></g><g transform="translate(0.2 0.5)"><path d="M15.4,25.2 Q14.9,15.7 22,15.6 Q29.1,15.7 28.6,25.2 Q27.6,19.4 22.8,18.6 Q20.8,20.4 18.8,19.4 Q16.4,20 15.4,25.2 Z" fill="#26296b" stroke="#26296b" stroke-width="1.1" stroke-linejoin="round"></path></g><g transform="translate(0.2 0)"><path d="M18.2,16.4 L18.8,13.8 L20.5,15.2 L22,12.4 L23.5,15.2 L25.2,13.8 L25.8,16.4 Z" fill="#e4572e" stroke="#26296b" stroke-width="1" stroke-linejoin="round"></path></g><g transform="translate(0.2 0)"><ellipse cx="22" cy="15.1" rx="0.9" ry="0.9" fill="#fffdf7"></ellipse></g><g transform="translate(0.2 0.5)"><ellipse cx="19.6" cy="24.4" rx="0.85" ry="0.95" fill="#26296b"></ellipse></g><g transform="translate(0.1 0.6)"><ellipse cx="24.4" cy="24.4" rx="0.85" ry="0.95" fill="#26296b"></ellipse></g><g transform="translate(0.2 0.2)"><ellipse cx="18" cy="26.6" rx="1.1" ry="0.7" fill="#f6c9bb"></ellipse></g><g transform="translate(-0.1 0.4)"><ellipse cx="26" cy="26.6" rx="1.1" ry="0.7" fill="#f6c9bb"></ellipse></g><g transform="translate(0.2 0.4)"><path d="M20.2,27.4 Q22,29 23.8,27.4" fill="none" stroke="#26296b" stroke-width="1.1" stroke-linejoin="round"></path></g></g><g transform="translate(60 140) scale(0.55)"><defs><pattern id="penh9" width="3.2" height="3.2" patternUnits="userSpaceOnUse" patternTransform="rotate(40)"><rect width="3.2" height="3.2" fill="#fffdf7"></rect><line x1="0" y1="0" x2="0" y2="3.2" stroke="#26296b" stroke-width="1.15"></line></pattern></defs><path d="M12.4 39.4L13.8 36L17.2 33.5L22.2 32.1L27 32.6L30.6 34.9L32.2 38.5L28 38.4L24.2 38.6L20.6 39.2L16.6 39.7Z" fill="#fbe9e2" stroke="#26296b" stroke-width="1.5" stroke-linejoin="round"></path><g transform="translate(-0.1 0)"><ellipse cx="15.4" cy="26.6" rx="2.1" ry="2" fill="#26296b" stroke="#26296b" stroke-width="0.9"></ellipse></g><g transform="translate(0.1 0.3)"><ellipse cx="14.6" cy="30" rx="2.1" ry="2" fill="#26296b" stroke="#26296b" stroke-width="0.9"></ellipse></g><g transform="translate(0.3 0.8)"><ellipse cx="14.2" cy="33.4" rx="2.1" ry="2" fill="#26296b" stroke="#26296b" stroke-width="0.9"></ellipse></g><g transform="translate(0.4 1)"><path d="M14.1,35.6 L16.8,34.2 L16.6,37.6 Z M14.1,35.6 L11.4,34.2 L11.6,37.6 Z" fill="#e4572e" stroke="#26296b" stroke-width="0.8" stroke-linejoin="round"></path></g><g transform="translate(-0.3 0.2)"><ellipse cx="28.6" cy="26.6" rx="2.1" ry="2" fill="#26296b" stroke="#26296b" stroke-width="0.9"></ellipse></g><g transform="translate(-0.3 0)"><ellipse cx="29.4" cy="30" rx="2.1" ry="2" fill="#26296b" stroke="#26296b" stroke-width="0.9"></ellipse></g><g transform="translate(-0.2 -0.2)"><ellipse cx="29.8" cy="33.4" rx="2.1" ry="2" fill="#26296b" stroke="#26296b" stroke-width="0.9"></ellipse></g><g transform="translate(-0.1 -0.2)"><path d="M29.9,35.6 L27.2,34.2 L27.4,37.6 Z M29.9,35.6 L32.6,34.2 L32.4,37.6 Z" fill="#e4572e" stroke="#26296b" stroke-width="0.8" stroke-linejoin="round"></path></g><g transform="translate(0.2 0.1)"><path d="M18.4,32.1 Q22,35.2 25.6,32.1" fill="none" stroke="#e4572e" stroke-width="1.7" stroke-linejoin="round"></path></g><g transform="translate(0.2 0.6)"><ellipse cx="22" cy="23.6" rx="6.3" ry="7" fill="#fffdf7" stroke="#26296b" stroke-width="1.8"></ellipse></g><g transform="translate(0.2 0.5)"><path d="M15.4,25.2 Q14.9,15.7 22,15.6 Q29.1,15.7 28.6,25.2 Q27.6,19.4 22.8,18.6 Q20.8,20.4 18.8,19.4 Q16.4,20 15.4,25.2 Z" fill="#26296b" stroke="#26296b" stroke-width="1.1" stroke-linejoin="round"></path></g><g transform="translate(0.2 0)"><path d="M18.2,16.4 L18.8,13.8 L20.5,15.2 L22,12.4 L23.5,15.2 L25.2,13.8 L25.8,16.4 Z" fill="#e4572e" stroke="#26296b" stroke-width="1" stroke-linejoin="round"></path></g><g transform="translate(0.2 0)"><ellipse cx="22" cy="15.1" rx="0.9" ry="0.9" fill="#fffdf7"></ellipse></g><g transform="translate(0.2 0.5)"><ellipse cx="19.6" cy="24.4" rx="0.85" ry="0.95" fill="#26296b"></ellipse></g><g transform="translate(0.1 0.6)"><ellipse cx="24.4" cy="24.4" rx="0.85" ry="0.95" fill="#26296b"></ellipse></g><g transform="translate(0.2 0.2)"><ellipse cx="18" cy="26.6" rx="1.1" ry="0.7" fill="#f6c9bb"></ellipse></g><g transform="translate(-0.1 0.4)"><ellipse cx="26" cy="26.6" rx="1.1" ry="0.7" fill="#f6c9bb"></ellipse></g><g transform="translate(0.2 0.4)"><path d="M20.2,27.4 Q22,29 23.8,27.4" fill="none" stroke="#26296b" stroke-width="1.1" stroke-linejoin="round"></path></g></g><g transform="translate(300 50) scale(0.85)"><defs><pattern id="penh10" width="3.2" height="3.2" patternUnits="userSpaceOnUse" patternTransform="rotate(40)"><rect width="3.2" height="3.2" fill="#fffdf7"></rect><line x1="0" y1="0" x2="0" y2="3.2" stroke="#26296b" stroke-width="1.15"></line></pattern></defs><path d="M10.7 39.4L11.6 36.8L13.9 35L17.6 33.7L22.2 32.9L26.6 32.8L30.3 34L32.9 36.1L34.1 38.9L30 38.9L26.1 38.9L22.5 39.3L18.7 39.9L14.6 40Z" fill="#e4572e" stroke="#26296b" stroke-width="1.5" stroke-linejoin="round"></path><g transform="translate(0.3 0.1)"><path d="M16.8,33.4 Q22,36.6 27.2,33.4 Q22,34.2 16.8,33.4 Z" fill="#fffdf7" stroke="#26296b" stroke-width="1" stroke-linejoin="round"></path></g><g transform="translate(0.5 0.7)"><ellipse cx="18.4" cy="34.6" rx="0.95" ry="0.95" fill="#fffdf7" stroke="#26296b" stroke-width="0.5"></ellipse></g><g transform="translate(0.4 0.4)"><ellipse cx="20.8" cy="35.4" rx="0.95" ry="0.95" fill="#fffdf7" stroke="#26296b" stroke-width="0.5"></ellipse></g><g transform="translate(0.1 -0.1)"><ellipse cx="23.2" cy="35.4" rx="0.95" ry="0.95" fill="#fffdf7" stroke="#26296b" stroke-width="0.5"></ellipse></g><g transform="translate(-0.1 -0.3)"><ellipse cx="25.6" cy="34.6" rx="0.95" ry="0.95" fill="#fffdf7" stroke="#26296b" stroke-width="0.5"></ellipse></g><g transform="translate(0.2 0.6)"><ellipse cx="22" cy="23.6" rx="6.6" ry="7.6" fill="#fffdf7" stroke="#26296b" stroke-width="1.8"></ellipse></g><g transform="translate(0.2 0.4)"><path d="M15.2,24.4 Q13.6,14.6 22,14.2 Q30.4,14.6 28.8,24.4 Q28,18.6 23.6,17.6 Q21,19.4 18.4,18.4 Q16,19 15.2,24.4 Z" fill="#26296b" stroke="#26296b" stroke-width="1.1" stroke-linejoin="round"></path></g><g transform="translate(0.2 0.5)"><ellipse cx="19.5" cy="24.2" rx="0.85" ry="0.95" fill="#26296b"></ellipse></g><g transform="translate(0.1 0.6)"><ellipse cx="24.5" cy="24.2" rx="0.85" ry="0.95" fill="#26296b"></ellipse></g><g transform="translate(0.2 0.4)"><path d="M20.3,27.6 Q22,29.2 23.7,27.6 Q22,28.2 20.3,27.6 Z" fill="#e4572e" stroke="#e4572e" stroke-width="0.6" stroke-linejoin="round"></path></g><g transform="translate(0 0.1)"><ellipse cx="16.1" cy="26.9" rx="0.95" ry="1.2" fill="#fffdf7" stroke="#26296b" stroke-width="0.7"></ellipse></g><g transform="translate(-0.3 0.3)"><ellipse cx="27.9" cy="26.9" rx="0.95" ry="1.2" fill="#fffdf7" stroke="#26296b" stroke-width="0.7"></ellipse></g><g transform="translate(0.3 0)"><path d="M15.4,16.4 L14,7.4 L17.4,11.8 L19.4,5.6 L22,11 L24.6,5.6 L26.6,11.8 L30,7.4 L28.6,16.4 Z" fill="#e4572e" stroke="#26296b" stroke-width="1.1" stroke-linejoin="round"></path></g><g transform="translate(0.1 0)"><ellipse cx="14" cy="7.4" rx="1.1" ry="1.1" fill="#fffdf7" stroke="#26296b" stroke-width="0.7"></ellipse></g><g transform="translate(0.4 0.1)"><ellipse cx="19.4" cy="5.6" rx="1.1" ry="1.1" fill="#fffdf7" stroke="#26296b" stroke-width="0.7"></ellipse></g><g transform="translate(0.2 0.3)"><ellipse cx="24.6" cy="5.6" rx="1.1" ry="1.1" fill="#fffdf7" stroke="#26296b" stroke-width="0.7"></ellipse></g><g transform="translate(-0.2 -0.3)"><ellipse cx="30" cy="7.4" rx="1.1" ry="1.1" fill="#fffdf7" stroke="#26296b" stroke-width="0.7"></ellipse></g><g transform="translate(0.2 0)"><line x1="15.2" y1="14.4" x2="28.8" y2="14.4" fill="none" stroke="#26296b" stroke-width="1" stroke-linecap="round"></line></g><g transform="translate(0.2 0.1)"><ellipse cx="22" cy="15.5" rx="1.3" ry="1" fill="#26296b"></ellipse></g></g><g transform="translate(300 140) scale(0.85)"><defs><pattern id="penh11" width="3.2" height="3.2" patternUnits="userSpaceOnUse" patternTransform="rotate(40)"><rect width="3.2" height="3.2" fill="#fffdf7"></rect><line x1="0" y1="0" x2="0" y2="3.2" stroke="#26296b" stroke-width="1.15"></line></pattern></defs><path d="M11 39.5L12 36.9L14.2 35L17.8 33.6L22.2 32.7L26.4 32.7L30 33.9L32.5 36L33.8 38.9L29 38.9L24.5 39L20.3 39.6L15.6 40Z" fill="#26296b" stroke="#26296b" stroke-width="1.5" stroke-linejoin="round"></path><path d="M11.9 35.3L16.3 36.9L20.5 37L24.2 36.3L28.1 35.5L32.5 34.5L33.2 37.1L28.6 38.2L24.5 39L20.4 39.6L15.9 39.5L11.4 37.8Z" fill="#fffdf7" stroke="#26296b" stroke-width="1" stroke-linejoin="round"></path><g transform="translate(0.5 1.1)"><ellipse cx="15" cy="36.4" rx="0.7" ry="1" fill="#26296b"></ellipse></g><g transform="translate(0.6 0.7)"><ellipse cx="19.6" cy="37.9" rx="0.7" ry="1" fill="#26296b"></ellipse></g><g transform="translate(0.2 -0.1)"><ellipse cx="24.4" cy="37.9" rx="0.7" ry="1" fill="#26296b"></ellipse></g><g transform="translate(-0.1 -0.3)"><ellipse cx="29" cy="36.4" rx="0.7" ry="1" fill="#26296b"></ellipse></g><g transform="translate(0.2 0.6)"><ellipse cx="22" cy="23" rx="6.8" ry="7.4" fill="#fffdf7" stroke="#26296b" stroke-width="1.8"></ellipse></g><g transform="translate(0.2 0.2)"><path d="M15.4,24.6 Q14.8,34.6 22,35.8 Q29.2,34.6 28.6,24.6 Q27.4,30.4 24.4,30.6 Q22,32 19.6,30.6 Q16.6,30.4 15.4,24.6 Z" fill="#dcd9ea" stroke="#26296b" stroke-width="1.1" stroke-linejoin="round"></path></g><g transform="translate(0.2 0.4)"><path d="M22,27.6 Q19.2,26.2 17,28.2 Q19.6,29.6 22,28.6 Q24.4,29.6 27,28.2 Q24.8,26.2 22,27.6 Z" fill="#dcd9ea" stroke="#26296b" stroke-width="0.9" stroke-linejoin="round"></path></g><g transform="translate(0.2 0.2)"><path d="M20.6,30.4 Q22,31.2 23.4,30.4" fill="none" stroke="#26296b" stroke-width="1" stroke-linejoin="round"></path></g><g transform="translate(0.1 0.6)"><path d="M17.6,20.6 Q19.4,19.4 21,20.4" fill="none" stroke="#26296b" stroke-width="1.6" stroke-linejoin="round"></path></g><g transform="translate(0.2 0.3)"><path d="M23,20.4 Q24.6,19.4 26.4,20.6" fill="none" stroke="#26296b" stroke-width="1.6" stroke-linejoin="round"></path></g><g transform="translate(0.1 0.6)"><ellipse cx="19.4" cy="22.6" rx="0.85" ry="0.95" fill="#26296b"></ellipse></g><g transform="translate(0.1 0.5)"><ellipse cx="24.6" cy="22.6" rx="0.85" ry="0.95" fill="#26296b"></ellipse></g><g transform="translate(0.3 0)"><path d="M14.8,17.8 L14.6,10 L18.4,13.4 L22,8.8 L25.6,13.4 L29.4,10 L29.2,17.8 Z" fill="#e4572e" stroke="#26296b" stroke-width="1.1" stroke-linejoin="round"></path></g><g transform="translate(0.2 0.1)"><line x1="14.8" y1="15.8" x2="29.2" y2="15.8" fill="none" stroke="#26296b" stroke-width="1" stroke-linecap="round"></line></g><g transform="translate(-0.1 0.4)"><ellipse cx="17.6" cy="16.8" rx="0.9" ry="0.9" fill="#fffdf7" stroke="#26296b" stroke-width="0.5"></ellipse></g><g transform="translate(0.2 0.2)"><ellipse cx="22" cy="16.8" rx="0.9" ry="0.9" fill="#fffdf7" stroke="#26296b" stroke-width="0.5"></ellipse></g><g transform="translate(0.3 -0.2)"><ellipse cx="26.4" cy="16.8" rx="0.9" ry="0.9" fill="#fffdf7" stroke="#26296b" stroke-width="0.5"></ellipse></g><g transform="translate(0.3 0.3)"><line x1="22" y1="8.8" x2="22" y2="4.8" fill="none" stroke="#26296b" stroke-width="1.4" stroke-linecap="round"></line></g><g transform="translate(0.3 0.3)"><line x1="20.2" y1="6.7" x2="23.8" y2="6.7" fill="none" stroke="#26296b" stroke-width="1.4" stroke-linecap="round"></line></g></g></svg>